<svg width="64" height="64" viewBox="-8 -8 73 73" fill="none" xmlns="http://www.w3.org/2000/svg">
<path opacity="0.9" d="M13.3594 30.2812C20.7375 30.2812 26.7188 36.2625 26.7188 43.6406C26.7188 51.0188 20.7375 57 13.3594 57C5.98121 57 0 51.0188 0 43.6406C0 36.2625 5.98121 30.2812 13.3594 30.2812ZM43.6406 30.2812C51.0188 30.2812 57 36.2625 57 43.6406C57 51.0188 51.0188 57 43.6406 57C36.2625 57 30.2812 51.0188 30.2812 43.6406C30.2812 36.2625 36.2625 30.2812 43.6406 30.2812ZM28.5 23.1562C31.4513 23.1562 33.8438 25.5487 33.8438 28.5C33.8438 31.4513 31.4513 33.8438 28.5 33.8438C25.5487 33.8438 23.1562 31.4513 23.1562 28.5C23.1562 25.5487 25.5487 23.1562 28.5 23.1562ZM13.3594 0C20.7375 0 26.7188 5.98121 26.7188 13.3594C26.7188 20.7375 20.7375 26.7188 13.3594 26.7188C5.98121 26.7188 0 20.7375 0 13.3594C0 5.98121 5.98121 0 13.3594 0ZM43.6406 0C51.0188 0 57 5.98121 57 13.3594C57 20.7375 51.0188 26.7188 43.6406 26.7188C36.2625 26.7188 30.2812 20.7375 30.2812 13.3594C30.2812 5.98121 36.2625 0 43.6406 0Z" fill="#0B1220"/>
</svg>
